<svg viewBox="0 0 61 46" fill="none" xmlns="http://www.w3.org/2000/svg">
<g filter="url(#filter0_d_3_586)">
<rect x="4" width="53" height="38" rx="19" fill="#F41111"/>
<path d="M39.01 22.38C37.78 22.38 36.59 22.18 35.48 21.82C35.13 21.7 34.74 21.79 34.47 22.06L32.9 24.03C30.07 22.68 27.42 20.13 26.01 17.2L27.96 15.54C28.23 15.26 28.31 14.87 28.2 14.52C27.83 13.41 27.64 12.22 27.64 10.99C27.64 10.45 27.19 10 26.65 10H23.19C22.65 10 22 10.24 22 10.99C22 20.28 29.73 28 39.01 28C39.72 28 40 27.37 40 26.82V23.37C40 22.83 39.55 22.38 39.01 22.38Z" fill="white"/>
</g>
<defs>
<filter id="filter0_d_3_586" x="0" y="0" width="61" height="46" filterUnits="userSpaceOnUse" color-interpolation-filters="sRGB">
<feFlood flood-opacity="0" result="BackgroundImageFix"/>
<feColorMatrix in="SourceAlpha" type="matrix" values="0 0 0 0 0 0 0 0 0 0 0 0 0 0 0 0 0 0 127 0" result="hardAlpha"/>
<feOffset dy="4"/>
<feGaussianBlur stdDeviation="2"/>
<feComposite in2="hardAlpha" operator="out"/>
<feColorMatrix type="matrix" values="0 0 0 0 0 0 0 0 0 0 0 0 0 0 0 0 0 0 0.25 0"/>
<feBlend mode="normal" in2="BackgroundImageFix" result="effect1_dropShadow_3_586"/>
<feBlend mode="normal" in="SourceGraphic" in2="effect1_dropShadow_3_586" result="shape"/>
</filter>
</defs>
</svg>
