<svg width="63" height="63" viewBox="0 0 63 63" fill="none" xmlns="http://www.w3.org/2000/svg">
<g filter="url(#filter0_d_1_7)">
<circle cx="31.5" cy="27.5" r="27.5" fill="#FF2424"/>
<path d="M32 31.9474C34.6086 31.9474 36.6986 29.8316 36.6986 27.2105L36.7143 17.7368C36.7143 15.1158 34.6086 13 32 13C29.3914 13 27.2857 15.1158 27.2857 17.7368V27.2105C27.2857 29.8316 29.3914 31.9474 32 31.9474ZM40.3286 27.2105C40.3286 31.9474 36.3371 35.2632 32 35.2632C27.6629 35.2632 23.6714 31.9474 23.6714 27.2105H21C21 32.5947 25.2743 37.0474 30.4286 37.8211V43H33.5714V37.8211C38.7257 37.0632 43 32.6105 43 27.2105H40.3286Z" fill="white"/>
<line x1="23.7772" y1="13.3708" x2="40.7772" y2="34.3708" stroke="#FF2424" stroke-width="2"/>
<line x1="21.3864" y1="12.6826" x2="44.3864" y2="40.6826" stroke="white"/>
</g>
<defs>
<filter id="filter0_d_1_7" x="0" y="0" width="63" height="63" filterUnits="userSpaceOnUse" color-interpolation-filters="sRGB">
<feFlood flood-opacity="0" result="BackgroundImageFix"/>
<feColorMatrix in="SourceAlpha" type="matrix" values="0 0 0 0 0 0 0 0 0 0 0 0 0 0 0 0 0 0 127 0" result="hardAlpha"/>
<feOffset dy="4"/>
<feGaussianBlur stdDeviation="2"/>
<feComposite in2="hardAlpha" operator="out"/>
<feColorMatrix type="matrix" values="0 0 0 0 0 0 0 0 0 0 0 0 0 0 0 0 0 0 0.25 0"/>
<feBlend mode="normal" in2="BackgroundImageFix" result="effect1_dropShadow_1_7"/>
<feBlend mode="normal" in="SourceGraphic" in2="effect1_dropShadow_1_7" result="shape"/>
</filter>
</defs>
</svg>
