<svg viewBox="0 0 35 43" fill="none" xmlns="http://www.w3.org/2000/svg">
<g filter="url(#filter0_d_528_177)">
<path fill-rule="evenodd" clip-rule="evenodd" d="M17.5 2.44186C11.0706 2.44186 6.53125 6.90721 6.53125 12.403C6.53125 14.9035 7.59775 16.59 8.93594 18.1984C9.22619 18.5484 9.5215 18.8853 9.82525 19.2321L9.98725 19.4144C10.3416 19.8214 10.7078 20.2414 11.0504 20.6744C11.7321 21.5388 12.3717 22.5107 12.7294 23.66C12.8171 23.9674 12.7766 24.2956 12.6167 24.5745C12.4568 24.8535 12.1901 25.0611 11.8737 25.1529C11.5573 25.2447 11.2162 25.2135 10.9233 25.066C10.6304 24.9184 10.4089 24.6662 10.3062 24.3633C10.0733 23.6144 9.63625 22.9144 9.0355 22.1542C8.71826 21.7589 8.39078 21.3713 8.05337 20.9919L7.89812 20.8128C7.59437 20.4677 7.27375 20.103 6.96156 19.727C5.46813 17.933 4 15.7109 4 12.4014C4 5.47465 9.76281 0 17.5 0C25.2372 0 31 5.47302 31 12.403C31 15.7109 29.5319 17.933 28.0384 19.7286C27.7263 20.103 27.4056 20.4677 27.1019 20.8144L26.9466 20.9919C26.5922 21.3956 26.2632 21.7749 25.9645 22.1542C25.3638 22.9144 24.9267 23.616 24.6938 24.3633C24.5971 24.6735 24.3767 24.9339 24.0809 25.0873C23.7852 25.2407 23.4384 25.2745 23.1168 25.1813C22.7953 25.088 22.5253 24.8754 22.3663 24.5901C22.2072 24.3048 22.1722 23.9702 22.2689 23.66C22.6283 22.5107 23.2679 21.5388 23.9513 20.6744C24.2922 20.2414 24.6584 19.8214 25.0144 19.4144L25.1748 19.2321C25.4785 18.8853 25.7738 18.5484 26.0641 18.2C27.4023 16.5884 28.4688 14.9035 28.4688 12.403C28.4688 6.90721 23.9294 2.44186 17.5 2.44186ZM13.2812 33.7791C13.2812 33.4553 13.4146 33.1447 13.6519 32.9157C13.8893 32.6868 14.2112 32.5581 14.5469 32.5581H20.4531C20.7888 32.5581 21.1107 32.6868 21.3481 32.9157C21.5854 33.1447 21.7188 33.4553 21.7188 33.7791C21.7188 34.1029 21.5854 34.4134 21.3481 34.6424C21.1107 34.8714 20.7888 35 20.4531 35H14.5469C14.2112 35 13.8893 34.8714 13.6519 34.6424C13.4146 34.4134 13.2812 34.1029 13.2812 33.7791ZM12.0156 27.6744C11.68 27.6744 11.358 27.803 11.1207 28.032C10.8833 28.261 10.75 28.5715 10.75 28.8953C10.75 29.2192 10.8833 29.5297 11.1207 29.7587C11.358 29.9876 11.68 30.1163 12.0156 30.1163H22.9844C23.32 30.1163 23.642 29.9876 23.8793 29.7587C24.1167 29.5297 24.25 29.2192 24.25 28.8953C24.25 28.5715 24.1167 28.261 23.8793 28.032C23.642 27.803 23.32 27.6744 22.9844 27.6744H12.0156Z" fill="#FFB800"/>
</g>
<defs>
<filter id="filter0_d_528_177" x="0" y="0" width="35" height="43" filterUnits="userSpaceOnUse" color-interpolation-filters="sRGB">
<feFlood flood-opacity="0" result="BackgroundImageFix"/>
<feColorMatrix in="SourceAlpha" type="matrix" values="0 0 0 0 0 0 0 0 0 0 0 0 0 0 0 0 0 0 127 0" result="hardAlpha"/>
<feOffset dy="4"/>
<feGaussianBlur stdDeviation="2"/>
<feComposite in2="hardAlpha" operator="out"/>
<feColorMatrix type="matrix" values="0 0 0 0 0 0 0 0 0 0 0 0 0 0 0 0 0 0 0.25 0"/>
<feBlend mode="normal" in2="BackgroundImageFix" result="effect1_dropShadow_528_177"/>
<feBlend mode="normal" in="SourceGraphic" in2="effect1_dropShadow_528_177" result="shape"/>
</filter>
</defs>
</svg>
