<svg viewBox="0 0 44 52" fill="none" xmlns="http://www.w3.org/2000/svg">
<path d="M13.8889 26.3477H29.8712" stroke="#EEAC00" stroke-width="1.25"/>
<mask id="path-2-inside-1_528_234" fill="white">
<path fill-rule="evenodd" clip-rule="evenodd" d="M9.42088 12.833C8.75813 12.833 8.22088 13.3703 8.22088 14.033V16.502H5.0968C4.54452 16.502 4.0968 16.9497 4.0968 17.502V35.1509C4.0968 35.7032 4.54452 36.1509 5.0968 36.1509H8.22088V38.6502C8.22088 39.3129 8.75813 39.8502 9.42087 39.8502H13.2075C13.8703 39.8502 14.4075 39.3129 14.4075 38.6502V14.033C14.4075 13.3703 13.8703 12.833 13.2075 12.833H9.42088Z"/>
</mask>
<path d="M8.22088 16.502V17.752H9.47088V16.502H8.22088ZM8.22088 36.1509H9.47088V34.9009H8.22088V36.1509ZM9.47088 14.033C9.47088 14.0606 9.44849 14.083 9.42088 14.083V11.583C8.06778 11.583 6.97088 12.6799 6.97088 14.033H9.47088ZM9.47088 16.502V14.033H6.97088V16.502H9.47088ZM5.0968 17.752H8.22088V15.252H5.0968V17.752ZM5.3468 17.502C5.3468 17.6401 5.23487 17.752 5.0968 17.752V15.252C3.85416 15.252 2.8468 16.2594 2.8468 17.502H5.3468ZM5.3468 35.1509V17.502H2.8468V35.1509H5.3468ZM5.0968 34.9009C5.23487 34.9009 5.3468 35.0128 5.3468 35.1509H2.8468C2.8468 36.3935 3.85416 37.4009 5.0968 37.4009V34.9009ZM8.22088 34.9009H5.0968V37.4009H8.22088V34.9009ZM9.47088 38.6502V36.1509H6.97088V38.6502H9.47088ZM9.42087 38.6002C9.44849 38.6002 9.47088 38.6226 9.47088 38.6502H6.97088C6.97088 40.0033 8.06778 41.1002 9.42087 41.1002V38.6002ZM13.2075 38.6002H9.42087V41.1002H13.2075V38.6002ZM13.1575 38.6502C13.1575 38.6226 13.1799 38.6002 13.2075 38.6002V41.1002C14.5606 41.1002 15.6575 40.0033 15.6575 38.6502H13.1575ZM13.1575 14.033V38.6502H15.6575V14.033H13.1575ZM13.2075 14.083C13.1799 14.083 13.1575 14.0606 13.1575 14.033H15.6575C15.6575 12.6799 14.5606 11.583 13.2075 11.583V14.083ZM9.42088 14.083H13.2075V11.583H9.42088V14.083Z" fill="#EEAC00" mask="url(#path-2-inside-1_528_234)"/>
<mask id="path-4-inside-2_528_234" fill="white">
<path fill-rule="evenodd" clip-rule="evenodd" d="M34.7555 12.833C35.4734 12.833 36.0555 13.415 36.0555 14.133V16.502H39.1814C39.7337 16.502 40.1814 16.9497 40.1814 17.502V35.1509C40.1814 35.7032 39.7337 36.1509 39.1814 36.1509H36.0555V38.5502C36.0555 39.2682 35.4734 39.8502 34.7555 39.8502H31.1688C30.4508 39.8502 29.8688 39.2682 29.8688 38.5502V14.133C29.8688 13.415 30.4508 12.833 31.1688 12.833H34.7555Z"/>
</mask>
<path d="M36.0555 16.502V17.752H34.8055V16.502H36.0555ZM36.0555 36.1509H34.8055V34.9009H36.0555V36.1509ZM34.8055 14.133C34.8055 14.1054 34.7831 14.083 34.7555 14.083V11.583C36.1638 11.583 37.3055 12.7247 37.3055 14.133H34.8055ZM34.8055 16.502V14.133H37.3055V16.502H34.8055ZM39.1814 17.752H36.0555V15.252H39.1814V17.752ZM38.9314 17.502C38.9314 17.6401 39.0433 17.752 39.1814 17.752V15.252C40.424 15.252 41.4314 16.2594 41.4314 17.502H38.9314ZM38.9314 35.1509V17.502H41.4314V35.1509H38.9314ZM39.1814 34.9009C39.0433 34.9009 38.9314 35.0128 38.9314 35.1509H41.4314C41.4314 36.3935 40.424 37.4009 39.1814 37.4009V34.9009ZM36.0555 34.9009H39.1814V37.4009H36.0555V34.9009ZM34.8055 38.5502V36.1509H37.3055V38.5502H34.8055ZM34.7555 38.6002C34.7831 38.6002 34.8055 38.5778 34.8055 38.5502H37.3055C37.3055 39.9585 36.1638 41.1002 34.7555 41.1002V38.6002ZM31.1688 38.6002H34.7555V41.1002H31.1688V38.6002ZM31.1188 38.5502C31.1188 38.5778 31.1412 38.6002 31.1688 38.6002V41.1002C29.7605 41.1002 28.6188 39.9585 28.6188 38.5502H31.1188ZM31.1188 14.133V38.5502H28.6188V14.133H31.1188ZM31.1688 14.083C31.1412 14.083 31.1188 14.1054 31.1188 14.133H28.6188C28.6188 12.7247 29.7605 11.583 31.1688 11.583V14.083ZM34.7555 14.083H31.1688V11.583H34.7555V14.083Z" fill="#EEAC00" mask="url(#path-4-inside-2_528_234)"/>
<path d="M40.1793 26.3477H43.2727" stroke="#EEAC00" stroke-width="1.25" stroke-linecap="round"/>
<path d="M4.09473 26.3477H1.00139" stroke="#EEAC00" stroke-width="1.25" stroke-linecap="round"/>
</svg>
