<svg viewBox="0 0 37 45" fill="none" xmlns="http://www.w3.org/2000/svg">
<g filter="url(#filter0_d_724_1734)">
<path fill-rule="evenodd" clip-rule="evenodd" d="M18.5 3.44186C12.0706 3.44186 7.53125 7.90721 7.53125 13.403C7.53125 15.9035 8.59775 17.59 9.93594 19.1984C10.2262 19.5484 10.5215 19.8853 10.8253 20.2321L10.9872 20.4144C11.3416 20.8214 11.7078 21.2414 12.0504 21.6744C12.7321 22.5388 13.3717 23.5107 13.7294 24.66C13.8171 24.9674 13.7766 25.2956 13.6167 25.5745C13.4568 25.8535 13.1901 26.0611 12.8737 26.1529C12.5573 26.2447 12.2162 26.2135 11.9233 26.066C11.6304 25.9184 11.4089 25.6662 11.3062 25.3633C11.0733 24.6144 10.6363 23.9144 10.0355 23.1542C9.71826 22.7589 9.39078 22.3713 9.05337 21.9919L8.89812 21.8128C8.59437 21.4677 8.27375 21.103 7.96156 20.727C6.46813 18.933 5 16.7109 5 13.4014C5 6.47465 10.7628 1 18.5 1C26.2372 1 32 6.47302 32 13.403C32 16.7109 30.5319 18.933 29.0384 20.7286C28.7263 21.103 28.4056 21.4677 28.1019 21.8144L27.9466 21.9919C27.5922 22.3956 27.2632 22.7749 26.9645 23.1542C26.3638 23.9144 25.9267 24.616 25.6938 25.3633C25.5971 25.6735 25.3767 25.9339 25.0809 26.0873C24.7852 26.2407 24.4384 26.2745 24.1168 26.1813C23.7953 26.088 23.5253 25.8754 23.3663 25.5901C23.2072 25.3048 23.1722 24.9702 23.2689 24.66C23.6283 23.5107 24.2679 22.5388 24.9513 21.6744C25.2922 21.2414 25.6584 20.8214 26.0144 20.4144L26.1748 20.2321C26.4785 19.8853 26.7738 19.5484 27.0641 19.2C28.4023 17.5884 29.4688 15.9035 29.4688 13.403C29.4688 7.90721 24.9294 3.44186 18.5 3.44186ZM14.2812 34.7791C14.2812 34.4553 14.4146 34.1447 14.6519 33.9157C14.8893 33.6868 15.2112 33.5581 15.5469 33.5581H21.4531C21.7888 33.5581 22.1107 33.6868 22.3481 33.9157C22.5854 34.1447 22.7188 34.4553 22.7188 34.7791C22.7188 35.1029 22.5854 35.4134 22.3481 35.6424C22.1107 35.8714 21.7888 36 21.4531 36H15.5469C15.2112 36 14.8893 35.8714 14.6519 35.6424C14.4146 35.4134 14.2812 35.1029 14.2812 34.7791ZM13.0156 28.6744C12.68 28.6744 12.358 28.803 12.1207 29.032C11.8833 29.261 11.75 29.5715 11.75 29.8953C11.75 30.2192 11.8833 30.5297 12.1207 30.7587C12.358 30.9876 12.68 31.1163 13.0156 31.1163H23.9844C24.32 31.1163 24.642 30.9876 24.8793 30.7587C25.1167 30.5297 25.25 30.2192 25.25 29.8953C25.25 29.5715 25.1167 29.261 24.8793 29.032C24.642 28.803 24.32 28.6744 23.9844 28.6744H13.0156Z" fill="white"/>
<path fill-rule="evenodd" clip-rule="evenodd" d="M18.5 3.44186C12.0706 3.44186 7.53125 7.90721 7.53125 13.403C7.53125 15.9035 8.59775 17.59 9.93594 19.1984C10.2262 19.5484 10.5215 19.8853 10.8253 20.2321L10.9872 20.4144C11.3416 20.8214 11.7078 21.2414 12.0504 21.6744C12.7321 22.5388 13.3717 23.5107 13.7294 24.66C13.8171 24.9674 13.7766 25.2956 13.6167 25.5745C13.4568 25.8535 13.1901 26.0611 12.8737 26.1529C12.5573 26.2447 12.2162 26.2135 11.9233 26.066C11.6304 25.9184 11.4089 25.6662 11.3062 25.3633C11.0733 24.6144 10.6363 23.9144 10.0355 23.1542C9.71826 22.7589 9.39078 22.3713 9.05337 21.9919L8.89812 21.8128C8.59437 21.4677 8.27375 21.103 7.96156 20.727C6.46813 18.933 5 16.7109 5 13.4014C5 6.47465 10.7628 1 18.5 1C26.2372 1 32 6.47302 32 13.403C32 16.7109 30.5319 18.933 29.0384 20.7286C28.7263 21.103 28.4056 21.4677 28.1019 21.8144L27.9466 21.9919C27.5922 22.3956 27.2632 22.7749 26.9645 23.1542C26.3638 23.9144 25.9267 24.616 25.6938 25.3633C25.5971 25.6735 25.3767 25.9339 25.0809 26.0873C24.7852 26.2407 24.4384 26.2745 24.1168 26.1813C23.7953 26.088 23.5253 25.8754 23.3663 25.5901C23.2072 25.3048 23.1722 24.9702 23.2689 24.66C23.6283 23.5107 24.2679 22.5388 24.9513 21.6744C25.2922 21.2414 25.6584 20.8214 26.0144 20.4144L26.1748 20.2321C26.4785 19.8853 26.7738 19.5484 27.0641 19.2C28.4023 17.5884 29.4688 15.9035 29.4688 13.403C29.4688 7.90721 24.9294 3.44186 18.5 3.44186ZM14.2812 34.7791C14.2812 34.4553 14.4146 34.1447 14.6519 33.9157C14.8893 33.6868 15.2112 33.5581 15.5469 33.5581H21.4531C21.7888 33.5581 22.1107 33.6868 22.3481 33.9157C22.5854 34.1447 22.7188 34.4553 22.7188 34.7791C22.7188 35.1029 22.5854 35.4134 22.3481 35.6424C22.1107 35.8714 21.7888 36 21.4531 36H15.5469C15.2112 36 14.8893 35.8714 14.6519 35.6424C14.4146 35.4134 14.2812 35.1029 14.2812 34.7791ZM13.0156 28.6744C12.68 28.6744 12.358 28.803 12.1207 29.032C11.8833 29.261 11.75 29.5715 11.75 29.8953C11.75 30.2192 11.8833 30.5297 12.1207 30.7587C12.358 30.9876 12.68 31.1163 13.0156 31.1163H23.9844C24.32 31.1163 24.642 30.9876 24.8793 30.7587C25.1167 30.5297 25.25 30.2192 25.25 29.8953C25.25 29.5715 25.1167 29.261 24.8793 29.032C24.642 28.803 24.32 28.6744 23.9844 28.6744H13.0156Z" stroke="white"/>
</g>
<defs>
<filter id="filter0_d_724_1734" x="0.5" y="0.5" width="36" height="44" filterUnits="userSpaceOnUse" color-interpolation-filters="sRGB">
<feFlood flood-opacity="0" result="BackgroundImageFix"/>
<feColorMatrix in="SourceAlpha" type="matrix" values="0 0 0 0 0 0 0 0 0 0 0 0 0 0 0 0 0 0 127 0" result="hardAlpha"/>
<feOffset dy="4"/>
<feGaussianBlur stdDeviation="2"/>
<feComposite in2="hardAlpha" operator="out"/>
<feColorMatrix type="matrix" values="0 0 0 0 0 0 0 0 0 0 0 0 0 0 0 0 0 0 0.25 0"/>
<feBlend mode="normal" in2="BackgroundImageFix" result="effect1_dropShadow_724_1734"/>
<feBlend mode="normal" in="SourceGraphic" in2="effect1_dropShadow_724_1734" result="shape"/>
</filter>
</defs>
</svg>
