<svg width="202" height="193" viewBox="0 0 202 193" fill="none" xmlns="http://www.w3.org/2000/svg">
<g clip-path="url(#clip0_576_665)">
<path d="M178.912 48.073C162.241 41.8092 144.16 40.02 126.591 42.8961C109.561 45.6847 93.0156 52.8545 78.7172 64.5862C64.4188 76.318 54.1556 91.1445 48.0945 107.302C41.8426 123.97 40.0658 142.053 42.9532 159.626C45.7528 176.66 52.9327 193.212 64.6724 207.521L92.6599 184.557C85.1064 175.351 80.503 164.698 78.7029 153.738C76.8437 142.432 77.9884 130.805 82.0102 120.079C85.9088 109.683 92.497 100.137 101.697 92.5884C110.896 85.0401 121.545 80.4432 132.503 78.6502C143.806 76.7983 155.432 77.9509 166.159 81.9804C176.557 85.8864 186.106 92.4819 193.659 101.688L221.647 78.7244C209.902 64.4201 195.071 54.1457 178.912 48.073Z" fill="white"/>
<path d="M132.5 78.6518L126.591 42.8958C109.561 45.6844 93.0152 52.8542 78.7168 64.5859L101.696 92.5924C110.896 85.0441 121.545 80.4472 132.5 78.6518Z" fill="#F7B11E"/>
<path d="M82.0075 120.081L48.0942 107.301C41.8423 123.97 40.0655 142.053 42.9528 159.625L78.7002 153.739C76.8453 142.434 77.9881 130.805 82.0075 120.081Z" fill="#FDEB48"/>
<path d="M101.696 92.5926L78.717 64.5861C64.4186 76.3179 54.1555 91.1444 48.0944 107.302L82.0077 120.081C85.9105 109.685 92.4964 100.141 101.696 92.5926Z" fill="#FED137"/>
<path d="M166.157 81.9825L178.911 48.0732C162.241 41.8094 144.159 40.0203 126.591 42.8963L132.5 78.6523C143.805 76.8028 155.431 77.9554 166.157 81.9825Z" fill="#F26D24"/>
<path d="M193.654 101.692L221.642 78.7281C209.902 64.42 195.071 54.1456 178.911 48.0729L166.156 81.9822C176.556 85.8906 186.101 92.4856 193.654 101.692Z" fill="#D72626"/>
<path d="M92.6595 184.558C85.1061 175.352 80.5027 164.698 78.7026 153.738L42.9528 159.626C45.7525 176.66 52.9324 193.213 64.6721 207.521L92.6595 184.558Z" fill="#99C817"/>
<g filter="url(#filter0_d_576_665)">
<path d="M169.051 74.9384C157.053 70.4306 144.049 69.1439 131.405 71.2135C119.148 73.2219 107.239 78.3604 96.9475 86.8045C86.6561 95.2485 79.2886 105.922 74.9269 117.554C70.4277 129.55 69.1498 142.555 71.2276 155.201C73.2281 167.38 78.3254 179.216 86.6761 189.466L92.6571 184.558C85.1037 175.352 80.5003 164.699 78.7002 153.739C76.841 142.433 77.9857 130.806 82.0075 120.08C85.9061 109.684 92.4943 100.138 101.694 92.5894C110.894 85.0411 121.543 80.4442 132.5 78.6512C143.803 76.7993 155.429 77.9519 166.156 81.9814C176.554 85.8874 186.103 92.4829 193.657 101.689L199.638 96.7815C191.214 86.5916 180.601 79.2809 169.051 74.9384Z" fill="black"/>
</g>
<g filter="url(#filter1_d_576_665)">
<path d="M66 130.451L146.034 149.959L147.96 138.699L66 130.451Z" fill="black"/>
</g>
<path d="M151.038 152.729C156.344 148.376 157.114 140.543 152.757 135.234C148.401 129.924 140.569 129.149 135.263 133.502C129.957 137.856 129.188 145.689 133.544 150.998C137.9 156.307 145.733 157.082 151.038 152.729Z" fill="#303030"/>
<path d="M148.757 149.948C152.528 146.854 153.075 141.286 149.979 137.513C146.883 133.739 141.316 133.188 137.545 136.282C133.774 139.377 133.227 144.944 136.323 148.717C139.419 152.491 144.986 153.042 148.757 149.948Z" fill="white"/>
<g filter="url(#filter2_d_576_665)">
<path d="M147.084 147.909C149.729 145.738 150.113 141.832 147.941 139.185C145.769 136.537 141.863 136.151 139.217 138.321C136.572 140.492 136.188 144.398 138.36 147.046C140.532 149.693 144.438 150.08 147.084 147.909Z" fill="#303030"/>
</g>
<path d="M45.538 162.776C42.6506 145.203 44.4274 127.121 50.6793 110.452C56.7404 94.2948 67.0036 79.4683 81.302 67.7365C95.6004 56.0048 112.146 48.835 129.176 46.0463C146.744 43.1703 164.826 44.9594 181.496 51.2233C196.465 56.8472 210.286 66.0828 221.574 78.7843L221.642 78.7283C209.902 64.4201 195.071 54.1457 178.912 48.073C162.241 41.8092 144.16 40.02 126.591 42.8961C109.561 45.6847 93.0156 52.8545 78.7172 64.5862C64.4188 76.318 54.1556 91.1445 48.0945 107.302C41.8426 123.97 40.0658 142.053 42.9532 159.626C45.7528 176.66 52.9327 193.212 64.6724 207.521L64.7407 207.465C54.4903 193.916 48.1301 178.555 45.538 162.776Z" fill="black"/>
</g>
<defs>
<filter id="filter0_d_576_665" x="66.2588" y="70.252" width="137.379" height="127.213" filterUnits="userSpaceOnUse" color-interpolation-filters="sRGB">
<feFlood flood-opacity="0" result="BackgroundImageFix"/>
<feColorMatrix in="SourceAlpha" type="matrix" values="0 0 0 0 0 0 0 0 0 0 0 0 0 0 0 0 0 0 127 0" result="hardAlpha"/>
<feOffset dy="4"/>
<feGaussianBlur stdDeviation="2"/>
<feComposite in2="hardAlpha" operator="out"/>
<feColorMatrix type="matrix" values="0 0 0 0 0 0 0 0 0 0 0 0 0 0 0 0 0 0 0.25 0"/>
<feBlend mode="normal" in2="BackgroundImageFix" result="effect1_dropShadow_576_665"/>
<feBlend mode="normal" in="SourceGraphic" in2="effect1_dropShadow_576_665" result="shape"/>
</filter>
<filter id="filter1_d_576_665" x="62" y="130.451" width="89.96" height="27.5078" filterUnits="userSpaceOnUse" color-interpolation-filters="sRGB">
<feFlood flood-opacity="0" result="BackgroundImageFix"/>
<feColorMatrix in="SourceAlpha" type="matrix" values="0 0 0 0 0 0 0 0 0 0 0 0 0 0 0 0 0 0 127 0" result="hardAlpha"/>
<feOffset dy="4"/>
<feGaussianBlur stdDeviation="2"/>
<feComposite in2="hardAlpha" operator="out"/>
<feColorMatrix type="matrix" values="0 0 0 0 0 0 0 0 0 0 0 0 0 0 0 0 0 0 0.25 0"/>
<feBlend mode="normal" in2="BackgroundImageFix" result="effect1_dropShadow_576_665"/>
<feBlend mode="normal" in="SourceGraphic" in2="effect1_dropShadow_576_665" result="shape"/>
</filter>
<filter id="filter2_d_576_665" x="132.952" y="136.916" width="20.3965" height="20.3984" filterUnits="userSpaceOnUse" color-interpolation-filters="sRGB">
<feFlood flood-opacity="0" result="BackgroundImageFix"/>
<feColorMatrix in="SourceAlpha" type="matrix" values="0 0 0 0 0 0 0 0 0 0 0 0 0 0 0 0 0 0 127 0" result="hardAlpha"/>
<feOffset dy="4"/>
<feGaussianBlur stdDeviation="2"/>
<feComposite in2="hardAlpha" operator="out"/>
<feColorMatrix type="matrix" values="0 0 0 0 0 0 0 0 0 0 0 0 0 0 0 0 0 0 0.25 0"/>
<feBlend mode="normal" in2="BackgroundImageFix" result="effect1_dropShadow_576_665"/>
<feBlend mode="normal" in="SourceGraphic" in2="effect1_dropShadow_576_665" result="shape"/>
</filter>
<clipPath id="clip0_576_665">
<rect width="203.044" height="114.017" fill="white" transform="translate(0.232422 128.982) rotate(-39.3686)"/>
</clipPath>
</defs>
</svg>
