<svg width="58" height="58" viewBox="0 0 58 58" fill="none" xmlns="http://www.w3.org/2000/svg">
<g filter="url(#filter0_d_587_1059)">
<path d="M24 36.25L39 25L24 13.75V36.25ZM29 0C15.2 0 4 11.2 4 25C4 38.8 15.2 50 29 50C42.8 50 54 38.8 54 25C54 11.2 42.8 0 29 0ZM29 45C17.975 45 9 36.025 9 25C9 13.975 17.975 5 29 5C40.025 5 49 13.975 49 25C49 36.025 40.025 45 29 45Z" fill="white"/>
</g>
<defs>
<filter id="filter0_d_587_1059" x="0" y="0" width="58" height="58" filterUnits="userSpaceOnUse" color-interpolation-filters="sRGB">
<feFlood flood-opacity="0" result="BackgroundImageFix"/>
<feColorMatrix in="SourceAlpha" type="matrix" values="0 0 0 0 0 0 0 0 0 0 0 0 0 0 0 0 0 0 127 0" result="hardAlpha"/>
<feOffset dy="4"/>
<feGaussianBlur stdDeviation="2"/>
<feComposite in2="hardAlpha" operator="out"/>
<feColorMatrix type="matrix" values="0 0 0 0 0 0 0 0 0 0 0 0 0 0 0 0 0 0 0.25 0"/>
<feBlend mode="normal" in2="BackgroundImageFix" result="effect1_dropShadow_587_1059"/>
<feBlend mode="normal" in="SourceGraphic" in2="effect1_dropShadow_587_1059" result="shape"/>
</filter>
</defs>
</svg>
