<svg width="26" height="27" viewBox="0 0 26 27" fill="none" xmlns="http://www.w3.org/2000/svg">
<path d="M22.9452 14.8162C22.9954 14.3944 23.0288 13.9556 23.0288 13.5C23.0288 13.0444 22.9954 12.6056 22.9285 12.1838L25.7533 9.95625C26.004 9.75375 26.0709 9.3825 25.9204 9.09562L23.2461 4.42125C23.079 4.1175 22.7279 4.01625 22.4271 4.1175L19.1009 5.4675C18.3988 4.9275 17.6634 4.48875 16.8444 4.15125L16.3429 0.57375C16.2928 0.23625 16.0086 0 15.6744 0H10.3257C9.99136 0 9.72392 0.23625 9.67378 0.57375L9.17234 4.15125C8.35332 4.48875 7.60116 4.94437 6.91586 5.4675L3.58964 4.1175C3.28877 3.99938 2.93776 4.1175 2.77062 4.42125L0.0962688 9.09562C-0.070878 9.39937 -0.00401906 9.75375 0.263416 9.95625L3.0882 12.1838C3.02134 12.6056 2.97119 13.0612 2.97119 13.5C2.97119 13.9388 3.00462 14.3944 3.07148 14.8162L0.246701 17.0438C-0.00401946 17.2463 -0.070878 17.6175 0.0795541 17.9044L2.7539 22.5788C2.92105 22.8825 3.27206 22.9838 3.57292 22.8825L6.89914 21.5325C7.60116 22.0725 8.33661 22.5112 9.15562 22.8487L9.65707 26.4263C9.72392 26.7638 9.99136 27 10.3257 27H15.6744C16.0086 27 16.2928 26.7638 16.3262 26.4263L16.8277 22.8487C17.6467 22.5112 18.3988 22.0556 19.0841 21.5325L22.4104 22.8825C22.7112 23.0006 23.0622 22.8825 23.2294 22.5788L25.9037 17.9044C26.0709 17.6006 26.004 17.2463 25.7366 17.0438L22.9452 14.8162ZM13 18.5625C10.2421 18.5625 7.9856 16.2844 7.9856 13.5C7.9856 10.7156 10.2421 8.4375 13 8.4375C15.7579 8.4375 18.0144 10.7156 18.0144 13.5C18.0144 16.2844 15.7579 18.5625 13 18.5625Z" fill="white"/>
</svg>
