<svg width="376" height="360" viewBox="0 0 376 360" fill="none" xmlns="http://www.w3.org/2000/svg">
<g filter="url(#filter0_di_799_390)">
<g filter="url(#filter1_i_799_390)">
<path d="M290.754 130.01C316.8 110.457 354.266 125.485 359.223 157.474L389.182 350.843C394.282 383.763 361.315 409.805 330.293 397.362L142.885 322.188C111.864 309.744 106.5 268.327 133.305 248.205L290.754 130.01Z" fill="white"/>
</g>
<path d="M396.708 424.639L166.401 362.775L376.783 189.196L396.708 424.639Z" fill="white"/>
<g clip-path="url(#clip0_799_390)">
<path d="M339.58 125.056C312.095 114.831 282.284 111.91 253.319 116.605C225.241 121.157 197.962 132.861 174.388 152.011C150.814 171.162 133.893 195.365 123.9 221.74C113.592 248.949 110.662 278.467 115.423 307.153C120.039 334.959 131.876 361.979 151.232 385.335L197.375 347.85C184.922 332.823 177.332 315.432 174.364 297.541C171.299 279.086 173.186 260.106 179.817 242.597C186.245 225.626 197.107 210.044 212.275 197.722C227.442 185.4 245 177.896 263.065 174.969C281.701 171.946 300.869 173.828 318.555 180.405C335.698 186.782 351.442 197.548 363.895 212.576L410.039 175.09C390.675 151.74 366.223 134.969 339.58 125.056Z" fill="white"/>
<path d="M263.06 174.973L253.317 116.605C225.24 121.157 197.961 132.861 174.387 152.012L212.273 197.729C227.441 185.407 244.998 177.903 263.06 174.973Z" fill="#F7B11E"/>
<path d="M179.814 242.6L123.901 221.74C113.593 248.949 110.663 278.467 115.424 307.153L174.361 297.544C171.303 279.089 173.187 260.106 179.814 242.6Z" fill="#FDEB48"/>
<path d="M212.275 197.728L174.389 152.011C150.815 171.161 133.894 195.364 123.901 221.739L179.815 242.599C186.249 225.629 197.108 210.05 212.275 197.728Z" fill="#FED137"/>
<path d="M318.553 180.41L339.582 125.057C312.097 114.831 282.285 111.911 253.32 116.606L263.063 174.973C281.701 171.954 300.87 173.836 318.553 180.41Z" fill="#F26D24"/>
<path d="M363.888 212.583L410.031 175.097C390.676 151.741 366.223 134.969 339.581 125.056L318.552 180.409C335.698 186.789 351.434 197.555 363.888 212.583Z" fill="#D72626"/>
<path d="M197.375 347.849C184.921 332.822 177.332 315.431 174.364 297.54L115.422 307.152C120.038 334.958 131.876 361.978 151.231 385.335L197.375 347.849Z" fill="#99C817"/>
<g filter="url(#filter2_d_799_390)">
<path d="M323.323 168.912C303.543 161.553 282.103 159.453 261.256 162.831C241.048 166.11 221.413 174.498 204.445 188.282C187.477 202.066 175.331 219.49 168.139 238.476C160.721 258.058 158.614 279.287 162.04 299.932C165.338 319.812 173.742 339.133 187.511 355.864L197.372 347.853C184.918 332.826 177.328 315.435 174.36 297.544C171.295 279.089 173.182 260.109 179.813 242.6C186.241 225.629 197.103 210.047 212.271 197.725C227.439 185.403 244.996 177.899 263.062 174.972C281.697 171.949 300.865 173.831 318.551 180.409C335.694 186.785 351.438 197.551 363.891 212.579L373.752 204.568C359.864 187.934 342.367 176 323.323 168.912Z" fill="black"/>
</g>
<g filter="url(#filter3_d_799_390)">
<path d="M219.828 163.709L275.885 287.335L292.329 278.533L219.828 163.709Z" fill="black"/>
</g>
<path d="M293.625 295.897C302.373 288.791 303.642 276.005 296.46 267.338C289.277 258.671 276.364 257.406 267.616 264.512C258.869 271.618 257.6 284.405 264.782 293.072C271.964 301.738 284.878 303.003 293.625 295.897Z" fill="#303030"/>
<path d="M289.865 291.357C296.082 286.307 296.984 277.218 291.879 271.059C286.774 264.899 277.596 263.999 271.379 269.05C265.161 274.101 264.259 283.189 269.364 289.349C274.469 295.509 283.647 296.408 289.865 291.357Z" fill="white"/>
<g filter="url(#filter4_d_799_390)">
<path d="M287.106 288.029C291.468 284.486 292.101 278.11 288.519 273.788C284.938 269.466 278.498 268.835 274.136 272.379C269.774 275.922 269.142 282.298 272.723 286.62C276.304 290.942 282.744 291.573 287.106 288.029Z" fill="#303030"/>
</g>
<path d="M119.684 312.295C114.924 283.61 117.854 254.092 128.161 226.882C138.154 200.507 155.075 176.305 178.649 157.154C202.224 138.003 229.502 126.299 257.58 121.747C286.546 117.052 316.357 119.973 343.842 130.198C368.52 139.378 391.308 154.454 409.919 175.188L410.031 175.097C390.676 151.74 366.223 134.969 339.58 125.056C312.095 114.831 282.284 111.91 253.319 116.605C225.241 121.157 197.962 132.861 174.388 152.011C150.814 171.162 133.893 195.365 123.9 221.74C113.592 248.949 110.662 278.467 115.423 307.153C120.039 334.959 131.876 361.979 151.232 385.335L151.344 385.244C134.444 363.128 123.958 338.052 119.684 312.295Z" fill="black"/>
</g>
</g>
<defs>
<filter id="filter0_di_799_390" x="40.9883" y="46.8926" width="386.039" height="385.746" filterUnits="userSpaceOnUse" color-interpolation-filters="sRGB">
<feFlood flood-opacity="0" result="BackgroundImageFix"/>
<feColorMatrix in="SourceAlpha" type="matrix" values="0 0 0 0 0 0 0 0 0 0 0 0 0 0 0 0 0 0 127 0" result="hardAlpha"/>
<feOffset dy="4"/>
<feGaussianBlur stdDeviation="2"/>
<feComposite in2="hardAlpha" operator="out"/>
<feColorMatrix type="matrix" values="0 0 0 0 0 0 0 0 0 0 0 0 0 0 0 0 0 0 0.25 0"/>
<feBlend mode="normal" in2="BackgroundImageFix" result="effect1_dropShadow_799_390"/>
<feBlend mode="normal" in="SourceGraphic" in2="effect1_dropShadow_799_390" result="shape"/>
<feColorMatrix in="SourceAlpha" type="matrix" values="0 0 0 0 0 0 0 0 0 0 0 0 0 0 0 0 0 0 127 0" result="hardAlpha"/>
<feOffset dy="4"/>
<feGaussianBlur stdDeviation="2"/>
<feComposite in2="hardAlpha" operator="arithmetic" k2="-1" k3="1"/>
<feColorMatrix type="matrix" values="0 0 0 0 0 0 0 0 0 0 0 0 0 0 0 0 0 0 0.25 0"/>
<feBlend mode="normal" in2="shape" result="effect2_innerShadow_799_390"/>
</filter>
<filter id="filter1_i_799_390" x="116.051" y="121.27" width="273.656" height="283.258" filterUnits="userSpaceOnUse" color-interpolation-filters="sRGB">
<feFlood flood-opacity="0" result="BackgroundImageFix"/>
<feBlend mode="normal" in="SourceGraphic" in2="BackgroundImageFix" result="shape"/>
<feColorMatrix in="SourceAlpha" type="matrix" values="0 0 0 0 0 0 0 0 0 0 0 0 0 0 0 0 0 0 127 0" result="hardAlpha"/>
<feOffset dy="4"/>
<feGaussianBlur stdDeviation="2"/>
<feComposite in2="hardAlpha" operator="arithmetic" k2="-1" k3="1"/>
<feColorMatrix type="matrix" values="0 0 0 0 0 0 0 0 0 0 0 0 0 0 0 0 0 0 0.25 0"/>
<feBlend mode="normal" in2="shape" result="effect1_innerShadow_799_390"/>
</filter>
<filter id="filter2_d_799_390" x="156.441" y="161.262" width="221.312" height="202.602" filterUnits="userSpaceOnUse" color-interpolation-filters="sRGB">
<feFlood flood-opacity="0" result="BackgroundImageFix"/>
<feColorMatrix in="SourceAlpha" type="matrix" values="0 0 0 0 0 0 0 0 0 0 0 0 0 0 0 0 0 0 127 0" result="hardAlpha"/>
<feOffset dy="4"/>
<feGaussianBlur stdDeviation="2"/>
<feComposite in2="hardAlpha" operator="out"/>
<feColorMatrix type="matrix" values="0 0 0 0 0 0 0 0 0 0 0 0 0 0 0 0 0 0 0.25 0"/>
<feBlend mode="normal" in2="BackgroundImageFix" result="effect1_dropShadow_799_390"/>
<feBlend mode="normal" in="SourceGraphic" in2="effect1_dropShadow_799_390" result="shape"/>
</filter>
<filter id="filter3_d_799_390" x="215.828" y="163.709" width="80.5" height="131.627" filterUnits="userSpaceOnUse" color-interpolation-filters="sRGB">
<feFlood flood-opacity="0" result="BackgroundImageFix"/>
<feColorMatrix in="SourceAlpha" type="matrix" values="0 0 0 0 0 0 0 0 0 0 0 0 0 0 0 0 0 0 127 0" result="hardAlpha"/>
<feOffset dy="4"/>
<feGaussianBlur stdDeviation="2"/>
<feComposite in2="hardAlpha" operator="out"/>
<feColorMatrix type="matrix" values="0 0 0 0 0 0 0 0 0 0 0 0 0 0 0 0 0 0 0.25 0"/>
<feBlend mode="normal" in2="BackgroundImageFix" result="effect1_dropShadow_799_390"/>
<feBlend mode="normal" in="SourceGraphic" in2="effect1_dropShadow_799_390" result="shape"/>
</filter>
<filter id="filter4_d_799_390" x="266.402" y="270.084" width="28.4375" height="28.2402" filterUnits="userSpaceOnUse" color-interpolation-filters="sRGB">
<feFlood flood-opacity="0" result="BackgroundImageFix"/>
<feColorMatrix in="SourceAlpha" type="matrix" values="0 0 0 0 0 0 0 0 0 0 0 0 0 0 0 0 0 0 127 0" result="hardAlpha"/>
<feOffset dy="4"/>
<feGaussianBlur stdDeviation="2"/>
<feComposite in2="hardAlpha" operator="out"/>
<feColorMatrix type="matrix" values="0 0 0 0 0 0 0 0 0 0 0 0 0 0 0 0 0 0 0.25 0"/>
<feBlend mode="normal" in2="BackgroundImageFix" result="effect1_dropShadow_799_390"/>
<feBlend mode="normal" in="SourceGraphic" in2="effect1_dropShadow_799_390" result="shape"/>
</filter>
<clipPath id="clip0_799_390">
<rect width="333.518" height="186.824" fill="white" transform="matrix(0.775968 -0.630368 0.638242 0.770169 44.9883 257.131)"/>
</clipPath>
</defs>
</svg>
